<?xml version="1.0" encoding="UTF-8" standalone="no"?>
<svg width="659px" height="641px" viewBox="0 0 659 641" version="1.1" xmlns="http://www.w3.org/2000/svg" xmlns:xlink="http://www.w3.org/1999/xlink" xmlns:sketch="http://www.bohemiancoding.com/sketch/ns">
    <!-- Generator: Sketch 3.4 (15575) - http://www.bohemiancoding.com/sketch -->
    <title>d3-data-dom-modules</title>
    <desc>Created with Sketch.</desc>
    <defs></defs>
    <g id="Page-1" stroke="none" stroke-width="1" fill="none" fill-rule="evenodd" sketch:type="MSPage">
        <g id="Group" sketch:type="MSLayerGroup" transform="translate(0.000000, 1.000000)" stroke="#000000" stroke-linecap="round" stroke-linejoin="round">
            <g id="Stroke-3-+-Stroke-4-+-Path" transform="translate(45.000000, 18.000000)" sketch:type="MSShapeGroup">
                <path d="M176.401811,36.905 C216.598906,86.111 216.598906,165.889 176.401811,215.095 C136.20571,264.302 71.0350993,264.302 30.8389982,215.095 C-9.35809743,165.889 -9.35809743,86.111 30.8389982,36.905 C71.0350993,-12.302 136.20571,-12.302 176.401811,36.905" id="Stroke-3"></path>
                <g id="Stroke-4-+-Path" transform="translate(54.000000, 54.000000)">
                    <path d="M84.6541324,14.272 C91.6443695,21.302 91.6443695,32.699 84.6541324,39.728 C77.6629007,46.757 66.3297463,46.757 59.3385147,39.728 C52.3482776,32.699 52.3482776,21.302 59.3385147,14.272 C66.3297463,7.243 77.6629007,7.243 84.6541324,14.272 L84.6541324,14.272 Z" id="Stroke-4"></path>
                    <path d="M8.34926471,0 L99.8419118,0 C104.235548,0 107.797794,3.582 107.797794,8 L107.797794,46 C107.797794,50.418 104.235548,54 99.8419118,54 L8.34926471,54 C3.95562868,54 0.393382353,50.418 0.393382353,46 L0.393382353,8 C0.393382353,3.582 3.95562868,0 8.34926471,0 L8.34926471,0 Z" id="Path"></path>
                </g>
                <g id="Stroke-5-+-Path" transform="translate(54.000000, 144.000000)">
                    <path d="M84.6541324,14.272 C91.6443695,21.302 91.6443695,32.699 84.6541324,39.728 C77.6629007,46.757 66.3297463,46.757 59.3385147,39.728 C52.3482776,32.699 52.3482776,21.302 59.3385147,14.272 C66.3297463,7.243 77.6629007,7.243 84.6541324,14.272 L84.6541324,14.272 Z" id="Stroke-5"></path>
                    <path d="M8.34926471,0 L99.8419118,0 C104.235548,0 107.797794,3.582 107.797794,8 L107.797794,46 C107.797794,50.418 104.235548,54 99.8419118,54 L8.34926471,54 C3.95562868,54 0.393382353,50.418 0.393382353,46 L0.393382353,8 C0.393382353,3.582 3.95562868,0 8.34926471,0 L8.34926471,0 Z" id="Path"></path>
                </g>
            </g>
            <g id="Stroke-5-+-Path-+-Path" transform="translate(287.000000, 27.000000)" sketch:type="MSShapeGroup">
                <path d="M176.061737,36.905 C216.258833,86.111 216.258833,165.889 176.061737,215.095 C135.865636,264.302 70.6950257,264.302 30.4989246,215.095 C-9.69817096,165.889 -9.69817096,86.111 30.4989246,36.905 C70.6950257,-12.302 135.865636,-12.302 176.061737,36.905 L176.061737,36.905 Z" id="Path"></path>
            </g>
            <path d="M8.89522059,0 L512.104779,0 C516.498415,0 520.060662,3.582 520.060662,8 L520.060662,280 C520.060662,284.418 516.498415,288 512.104779,288 L8.89522059,288 C4.50158456,288 0.939338235,284.418 0.939338235,280 L0.939338235,8 C0.939338235,3.582 4.50158456,0 8.89522059,0 L8.89522059,0 Z" id="Path" sketch:type="MSShapeGroup"></path>
        </g>
        <g id="Group" sketch:type="MSLayerGroup" transform="translate(0.000000, 352.000000)">
            <g id="Stroke-6-+-Path-+-Path" transform="translate(45.000000, 18.000000)" stroke="#000000" sketch:type="MSShapeGroup" stroke-linecap="round" stroke-linejoin="round">
                <g id="Stroke-6-+-Path" transform="translate(54.000000, 54.000000)">
                    <path d="M84.6541324,14.272 C91.6443695,21.302 91.6443695,32.699 84.6541324,39.728 C77.6629007,46.757 66.3297463,46.757 59.3385147,39.728 C52.3482776,32.699 52.3482776,21.302 59.3385147,14.272 C66.3297463,7.243 77.6629007,7.243 84.6541324,14.272 L84.6541324,14.272 Z" id="Stroke-6"></path>
                    <path d="M8.34926471,0 L99.8419118,0 C104.235548,0 107.797794,3.582 107.797794,8 L107.797794,46 C107.797794,50.418 104.235548,54 99.8419118,54 L8.34926471,54 C3.95562868,54 0.393382353,50.418 0.393382353,46 L0.393382353,8 C0.393382353,3.582 3.95562868,0 8.34926471,0 L8.34926471,0 Z" id="Path"></path>
                </g>
                <path d="M176.401811,36.905 C216.598906,86.111 216.598906,165.889 176.401811,215.095 C136.20571,264.302 71.0350993,264.302 30.8389982,215.095 C-9.35809743,165.889 -9.35809743,86.111 30.8389982,36.905 C71.0350993,-12.302 136.20571,-12.302 176.401811,36.905 L176.401811,36.905 Z" id="Path"></path>
            </g>
            <g id="Stroke-7-+-Path" transform="translate(99.000000, 162.000000)" stroke="#000000" stroke-linecap="round" sketch:type="MSShapeGroup" stroke-linejoin="round">
                <path d="M84.6541324,14.272 C91.6443695,21.302 91.6443695,32.699 84.6541324,39.728 C77.6629007,46.757 66.3297463,46.757 59.3385147,39.728 C52.3482776,32.699 52.3482776,21.302 59.3385147,14.272 C66.3297463,7.243 77.6629007,7.243 84.6541324,14.272 L84.6541324,14.272 Z" id="Stroke-7"></path>
                <path d="M8.34926471,0 L99.8419118,0 C104.235548,0 107.797794,3.582 107.797794,8 L107.797794,46 C107.797794,50.418 104.235548,54 99.8419118,54 L8.34926471,54 C3.95562868,54 0.393382353,50.418 0.393382353,46 L0.393382353,8 C0.393382353,3.582 3.95562868,0 8.34926471,0 L8.34926471,0 Z" id="Path"></path>
            </g>
            <g id="Path-+-Stroke-8-+-Path" transform="translate(287.000000, 27.000000)" stroke="#000000" sketch:type="MSShapeGroup" stroke-linecap="round" stroke-linejoin="round">
                <path d="M176.061737,36.905 C216.258833,86.111 216.258833,165.889 176.061737,215.095 C135.865636,264.302 70.6950257,264.302 30.4989246,215.095 C-9.69817096,165.889 -9.69817096,86.111 30.4989246,36.905 C70.6950257,-12.302 135.865636,-12.302 176.061737,36.905 L176.061737,36.905 Z" id="Path"></path>
                <g id="Stroke-8-+-Path" transform="translate(54.000000, 54.000000)">
                    <path d="M84.3140588,14.272 C91.304296,21.302 91.304296,32.699 84.3140588,39.728 C77.3228272,46.757 65.9896728,46.757 58.9984412,39.728 C52.008204,32.699 52.008204,21.302 58.9984412,14.272 C65.9896728,7.243 77.3228272,7.243 84.3140588,14.272 L84.3140588,14.272 Z" id="Stroke-8"></path>
                    <path d="M99.5018382,0 C103.895474,0 107.457721,3.582 107.457721,8 L107.457721,46 C107.457721,50.418 103.895474,54 99.5018382,54 L8.00919118,54 C3.61555515,54 0.0533088235,50.418 0.0533088235,46 L0.0533088235,8 C0.0533088235,3.582 3.61555515,0 8.00919118,0 L99.5018382,0 Z" id="Path"></path>
                </g>
            </g>
            <g id="Stroke-9-+-Path" transform="translate(341.000000, 171.000000)" stroke="#000000" stroke-linecap="round" sketch:type="MSShapeGroup" stroke-linejoin="round">
                <path d="M84.3140588,14.272 C91.304296,21.302 91.304296,32.699 84.3140588,39.728 C77.3228272,46.757 65.9896728,46.757 58.9984412,39.728 C52.008204,32.699 52.008204,21.302 58.9984412,14.272 C65.9896728,7.243 77.3228272,7.243 84.3140588,14.272 L84.3140588,14.272 Z" id="Stroke-9"></path>
                <path d="M99.5018382,0 C103.895474,0 107.457721,3.582 107.457721,8 L107.457721,46 C107.457721,50.418 103.895474,54 99.5018382,54 L8.00919118,54 C3.61555515,54 0.0533088235,50.418 0.0533088235,46 L0.0533088235,8 C0.0533088235,3.582 3.61555515,0 8.00919118,0 L99.5018382,0 Z" id="Path"></path>
            </g>
            <g id="Fill-13-+-Stroke-14" transform="translate(187.000000, 44.000000)" sketch:type="MSShapeGroup">
                <path d="M0.486878676,42.143 L8.53823162,39.412 L4.76714338,34.762 L0.486878676,42.143 Z" id="Fill-13" fill="#FF1801"></path>
                <path d="M0.486878676,42.143 L8.53823162,39.412 L4.76714338,34.762 L0.486878676,42.143 Z" id="Stroke-14" stroke="#FF1801"></path>
                <path d="M211.31975,53.769 L207.990213,45.908 L203.671164,50.047 L211.31975,53.769 Z" id="Fill-11" fill="#FF1801"></path>
                <path d="M6.6526875,37.086 C22.8279908,24.695 62.9057482,-1.563 109.301471,1 C155.56791,3.556 191.483746,33.853 205.831186,47.978" id="Stroke-10" stroke="#FF1801" stroke-linecap="round" stroke-linejoin="round"></path>
            </g>
            <g id="Stroke-15-+-Fill-16" transform="translate(189.000000, 196.000000)" sketch:type="MSShapeGroup">
                <path d="M6.30552206,5.981 C20.0672096,18.821 53.4003676,44.974 98.3511029,47 C144.095437,49.062 185.408346,25.395 202.271833,14.178" id="Stroke-15" stroke="#FF1801" stroke-linecap="round" stroke-linejoin="round"></path>
                <path d="M208.768805,9.568 L200.54839,11.73 L203.988314,16.632 L208.768805,9.568 Z" id="Fill-16" fill="#FF1801"></path>
                <path d="M0.693641544,0.312 L4.19124632,8.098 L8.42079228,3.866 L0.693641544,0.312 Z" id="Fill-18" fill="#FF1801"></path>
            </g>
            <path d="M8.89522059,0 L512.104779,0 C516.498415,0 520.060662,3.582 520.060662,8 L520.060662,280 C520.060662,284.418 516.498415,288 512.104779,288 L8.89522059,288 C4.50158456,288 0.939338235,284.418 0.939338235,280 L0.939338235,8 C0.939338235,3.582 4.50158456,0 8.89522059,0 L8.89522059,0 Z" id="Stroke-20" stroke="#000000" stroke-linecap="round" stroke-linejoin="round" sketch:type="MSShapeGroup"></path>
        </g>
        <g id="Stroke-21-+-Fill-22-+-Stroke-23" sketch:type="MSLayerGroup" transform="translate(642.000000, 284.000000)">
            <path d="M6.02386765,0 C6.03182353,4.476 6.03580147,9.045 6.03580147,13.703 C6.03580147,21.892 6.02287316,30.043 6,38.107" id="Stroke-21" stroke="#FF1801" stroke-width="6" stroke-linecap="round" stroke-linejoin="round" sketch:type="MSShapeGroup"></path>
            <path d="M5.89829228,54.026 L11.9338235,38.052 L0,38 L5.89829228,54.026 Z" id="Fill-22" fill="#FF1801" sketch:type="MSShapeGroup"></path>
            <path d="M5.89829228,54.025 L11.9338235,38.051 L0,38 L5.89829228,54.025 Z" id="Stroke-23" stroke="#FF1801" stroke-width="6" sketch:type="MSShapeGroup"></path>
        </g>
    </g>
</svg>